<?xml version="1.0" encoding="UTF-8" standalone="no"?>
<!DOCTYPE svg PUBLIC "-//W3C//DTD SVG 1.1//EN"
 "http://www.w3.org/Graphics/SVG/1.1/DTD/svg11.dtd">
<!-- Generated by graphviz version 2.40.1 (20161225.0304)
 -->
<!-- Title: G Pages: 1 -->
<svg width="386pt" height="212pt"
 viewBox="0.00 0.00 386.46 212.00" xmlns="http://www.w3.org/2000/svg" xmlns:xlink="http://www.w3.org/1999/xlink">
<g id="graph0" class="graph" transform="scale(1 1) rotate(0) translate(4 208)">
<title>G</title>
<polygon fill="#ffffff" stroke="transparent" points="-4,4 -4,-208 382.4626,-208 382.4626,4 -4,4"/>
<!-- A0 -->
<g id="node1" class="node">
<title>A0</title>
<path fill="none" stroke="#000000" d="M245.2426,-204C245.2426,-204 211.2206,-204 211.2206,-204 205.2206,-204 199.2206,-198 199.2206,-192 199.2206,-192 199.2206,-180 199.2206,-180 199.2206,-174 205.2206,-168 211.2206,-168 211.2206,-168 245.2426,-168 245.2426,-168 251.2426,-168 257.2426,-174 257.2426,-180 257.2426,-180 257.2426,-192 257.2426,-192 257.2426,-198 251.2426,-204 245.2426,-204"/>
<text text-anchor="middle" x="228.2316" y="-183" font-family="Helvetica,sans-Serif" font-size="10.00" fill="#000000">{Initial}</text>
</g>
<!-- A1 -->
<g id="node2" class="node">
<title>A1</title>
<path fill="none" stroke="#000000" d="M150.1426,-120C150.1426,-120 102.3205,-120 102.3205,-120 96.3205,-120 90.3205,-114 90.3205,-108 90.3205,-108 90.3205,-96 90.3205,-96 90.3205,-90 96.3205,-84 102.3205,-84 102.3205,-84 150.1426,-84 150.1426,-84 156.1426,-84 162.1426,-90 162.1426,-96 162.1426,-96 162.1426,-108 162.1426,-108 162.1426,-114 156.1426,-120 150.1426,-120"/>
<text text-anchor="middle" x="126.2316" y="-99" font-family="Helvetica,sans-Serif" font-size="10.00" fill="#000000">{Running}</text>
</g>
<!-- A0&#45;&gt;A1 -->
<g id="edge1" class="edge">
<title>A0&#45;&gt;A1</title>
<path fill="none" stroke="#000000" d="M198.9745,-182.3411C177.9817,-178.1357 150.7104,-169.1465 134.8896,-150 130.3234,-144.4739 127.8303,-137.3536 126.5387,-130.2978"/>
<polygon fill="#000000" stroke="#000000" points="125.4043,-120.1995 130.9926,-129.6347 125.9625,-125.1683 126.5207,-130.137 126.5207,-130.137 126.5207,-130.137 125.9625,-125.1683 122.0488,-130.6394 125.4043,-120.1995 125.4043,-120.1995"/>
<text text-anchor="middle" x="154.4026" y="-141" font-family="Helvetica,sans-Serif" font-size="10.00" fill="#000000">[start.sh]</text>
</g>
<!-- A1&#45;&gt;A0 -->
<g id="edge8" class="edge">
<title>A1&#45;&gt;A0</title>
<path fill="none" stroke="#000000" d="M150.3726,-120.0225C157.7835,-125.6799 165.9122,-132.0131 173.2316,-138 182.2445,-145.3721 191.8721,-153.6351 200.5125,-161.2"/>
<polygon fill="#000000" stroke="#000000" points="208.1239,-167.9055 197.6457,-164.6716 204.3721,-164.6002 200.6204,-161.295 200.6204,-161.295 200.6204,-161.295 204.3721,-164.6002 203.5951,-157.9184 208.1239,-167.9055 208.1239,-167.9055"/>
<text text-anchor="middle" x="213.3471" y="-141" font-family="Helvetica,sans-Serif" font-size="10.00" fill="#000000">[remove.sh]</text>
</g>
<!-- A2 -->
<g id="node3" class="node">
<title>A2</title>
<path fill="none" stroke="#000000" d="M226.3158,-36C226.3158,-36 182.1473,-36 182.1473,-36 176.1473,-36 170.1473,-30 170.1473,-24 170.1473,-24 170.1473,-12 170.1473,-12 170.1473,-6 176.1473,0 182.1473,0 182.1473,0 226.3158,0 226.3158,0 232.3158,0 238.3158,-6 238.3158,-12 238.3158,-12 238.3158,-24 238.3158,-24 238.3158,-30 232.3158,-36 226.3158,-36"/>
<text text-anchor="middle" x="204.2316" y="-15" font-family="Helvetica,sans-Serif" font-size="10.00" fill="#000000">{Paused}</text>
</g>
<!-- A1&#45;&gt;A2 -->
<g id="edge2" class="edge">
<title>A1&#45;&gt;A2</title>
<path fill="none" stroke="#000000" d="M161.2348,-83.866C168.8173,-78.8116 176.3238,-72.8096 182.2316,-66 187.3528,-60.0971 191.5029,-52.8027 194.7607,-45.6982"/>
<polygon fill="#000000" stroke="#000000" points="198.6575,-36.2763 198.9939,-47.2371 196.7465,-40.8968 194.8355,-45.5172 194.8355,-45.5172 194.8355,-45.5172 196.7465,-40.8968 190.6771,-43.7972 198.6575,-36.2763 198.6575,-36.2763"/>
<text text-anchor="middle" x="214.2976" y="-57" font-family="Helvetica,sans-Serif" font-size="10.00" fill="#000000">[pause.sh]</text>
</g>
<!-- A3 -->
<g id="node4" class="node">
<title>A3</title>
<path fill="none" stroke="#000000" d="M87.1526,-36C87.1526,-36 39.3105,-36 39.3105,-36 33.3105,-36 27.3105,-30 27.3105,-24 27.3105,-24 27.3105,-12 27.3105,-12 27.3105,-6 33.3105,0 39.3105,0 39.3105,0 87.1526,0 87.1526,0 93.1526,0 99.1526,-6 99.1526,-12 99.1526,-12 99.1526,-24 99.1526,-24 99.1526,-30 93.1526,-36 87.1526,-36"/>
<text text-anchor="middle" x="63.2316" y="-15" font-family="Helvetica,sans-Serif" font-size="10.00" fill="#000000">{Stopped}</text>
</g>
<!-- A1&#45;&gt;A3 -->
<g id="edge4" class="edge">
<title>A1&#45;&gt;A3</title>
<path fill="none" stroke="#000000" d="M90.0334,-96.2751C57.7081,-90.3362 13.8924,-79.9586 3.4386,-66 -5.2181,-54.441 4.1996,-44.0589 17.9275,-35.9319"/>
<polygon fill="#000000" stroke="#000000" points="26.9091,-31.1728 20.1799,-39.8313 22.491,-33.5139 18.0729,-35.855 18.0729,-35.855 18.0729,-35.855 22.491,-33.5139 15.9659,-31.8787 26.9091,-31.1728 26.9091,-31.1728"/>
<text text-anchor="middle" x="23.1281" y="-57" font-family="Helvetica,sans-Serif" font-size="10.00" fill="#000000">[stop.sh]</text>
</g>
<!-- A2&#45;&gt;A0 -->
<g id="edge7" class="edge">
<title>A2&#45;&gt;A0</title>
<path fill="none" stroke="#000000" d="M238.4401,-26.2215C266.8052,-35.1226 305.0109,-52.4802 321.2316,-84 328.5529,-98.2267 328.5529,-105.7733 321.2316,-120 309.7615,-142.2886 286.8893,-158.6741 266.6988,-169.5439"/>
<polygon fill="#000000" stroke="#000000" points="257.6614,-174.1513 264.5265,-165.6002 262.1159,-171.8803 266.5704,-169.6093 266.5704,-169.6093 266.5704,-169.6093 262.1159,-171.8803 268.6143,-173.6183 257.6614,-174.1513 257.6614,-174.1513"/>
<text text-anchor="middle" x="352.3471" y="-99" font-family="Helvetica,sans-Serif" font-size="10.00" fill="#000000">[remove.sh]</text>
</g>
<!-- A2&#45;&gt;A1 -->
<g id="edge3" class="edge">
<title>A2&#45;&gt;A1</title>
<path fill="none" stroke="#000000" d="M170.0598,-23.594C152.2141,-28.4384 131.8767,-37.4184 120.9816,-54 117.1464,-59.8369 116.3635,-66.9584 117.0524,-73.9102"/>
<polygon fill="#000000" stroke="#000000" points="118.9307,-83.8045 112.6445,-74.8193 117.9981,-78.8923 117.0655,-73.98 117.0655,-73.98 117.0655,-73.98 117.9981,-78.8923 121.4866,-73.1407 118.9307,-83.8045 118.9307,-83.8045"/>
<text text-anchor="middle" x="149.8566" y="-57" font-family="Helvetica,sans-Serif" font-size="10.00" fill="#000000">[unpause.sh]</text>
</g>
<!-- A3&#45;&gt;A0 -->
<g id="edge6" class="edge">
<title>A3&#45;&gt;A0</title>
<path fill="none" stroke="#000000" d="M99.5234,-24.7553C150.9082,-34.4021 238.9406,-51.2664 241.2316,-54 265.5502,-83.0176 253.2697,-129.2093 241.3703,-158.5462"/>
<polygon fill="#000000" stroke="#000000" points="237.4029,-167.7999 237.2076,-156.8357 239.3732,-163.2044 241.3435,-158.609 241.3435,-158.609 241.3435,-158.609 239.3732,-163.2044 245.4794,-160.3822 237.4029,-167.7999 237.4029,-167.7999"/>
<text text-anchor="middle" x="281.3471" y="-99" font-family="Helvetica,sans-Serif" font-size="10.00" fill="#000000">[remove.sh]</text>
</g>
<!-- A3&#45;&gt;A1 -->
<g id="edge5" class="edge">
<title>A3&#45;&gt;A1</title>
<path fill="none" stroke="#000000" d="M59.4061,-36.0145C58.3438,-45.5453 58.6616,-57.0856 63.8896,-66 68.0685,-73.1255 74.2451,-78.9714 81.1093,-83.7233"/>
<polygon fill="#000000" stroke="#000000" points="90.073,-89.1714 79.1904,-87.823 85.8003,-86.5745 81.5276,-83.9776 81.5276,-83.9776 81.5276,-83.9776 85.8003,-86.5745 83.8649,-80.1321 90.073,-89.1714 90.073,-89.1714"/>
<text text-anchor="middle" x="83.4026" y="-57" font-family="Helvetica,sans-Serif" font-size="10.00" fill="#000000">[start.sh]</text>
</g>
</g>
</svg>
